<svg width="320" height="160" viewBox="140 60 320 260" xmlns="http://www.w3.org/2000/svg" role="img">
  <title>BOLTT LLC</title>
  <desc>BOLTT LLC logo, dark version, transparent background, tight crop.</desc>

  <polygon points="284,70 274,96 290,122 276,122 258,162 302,106 284,106 306,70 300,82" fill="#E8580A"/>
  <polygon points="306,70 300,82 318,106 298,106 324,162 308,122 326,122 316,96 328,70" fill="#E8580A"/>
  <polygon points="284,72 278,90 290,86" fill="#1A1C1F" opacity="0.55"/>
  <polygon points="306,72 312,90 300,86" fill="#1A1C1F" opacity="0.55"/>
  <polygon points="300,84 294,104 300,100 306,104 300,84" fill="#F5813A" opacity="0.4"/>

  <line x1="160" y1="117" x2="252" y2="117" stroke="#E8580A" stroke-width="0.6" stroke-opacity="0.4"/>
  <line x1="350" y1="117" x2="440" y2="117" stroke="#E8580A" stroke-width="0.6" stroke-opacity="0.4"/>

  <text x="300" y="192" text-anchor="middle"
    font-family="'Arial Black', 'Arial', sans-serif"
    font-weight="900"
    font-size="62"
    letter-spacing="16"
    fill="#F0F0EC">BOLTT</text>

  <rect x="168" y="200" width="266" height="2" rx="1" fill="#E8580A" opacity="0.85"/>

  <text x="300" y="228" text-anchor="middle"
    font-family="'Arial', sans-serif"
    font-weight="400"
    font-size="11"
    letter-spacing="7"
    fill="#888880">LLC</text>

  <text x="300" y="252" text-anchor="middle"
    font-family="'Arial', sans-serif"
    font-weight="400"
    font-size="9"
    letter-spacing="3"
    fill="#555550">SOVEREIGN CLOUD INFRASTRUCTURE</text>
</svg>
